#Comment line ignore any data following # character 
#Hierarchical Translation and Rotation (.htr) file 
[Header]	
#Header keywords are followed by a single value 
FileType HTR		#Single word string
DataType HTRS		#Translation followed by rotation and scale data
FileVersion 1		#integer
NumSegments 84		#integer
NumFrames 2		#integer
DataFrameRate 30		#integer, data frame rate in this file
EulerRotationOrder ZYX
CalibrationUnits mm
RotationUnits Degrees
GlobalAxisofGravity Y
BoneLengthAxis Y
ScaleFactor 1.00
[SegmentNames&Hierarchy]
#CHILD	PARENT
MASTER GLOBAL
root MASTER
chest root
L_mid_tent01 root
R_mid_tent01 root
spine01 root
Bip01_Neck chest
L_humerus chest
R_humerus chest
weapon_bone chest
Bip01_Head Bip01_Neck
eye_left_bone Bip01_Head
eye_right_bone Bip01_Head
L_forearm L_humerus
L_front_hand L_forearm
L_weapon_bone L_forearm
L_front_hand01_01 L_front_hand
L_front_hand02_01 L_front_hand
L_front_hand03_01 L_front_hand
L_front_hand01_02 L_front_hand01_01
L_front_hand02_02 L_front_hand02_01
L_front_hand03_02 L_front_hand03_01
R_forearm R_humerus
R_front_hand R_forearm
R_weapon_bone R_forearm
R_front_hand01_01 R_front_hand
R_front_hand02_01 R_front_hand
R_front_hand03_01 R_front_hand
R_front_hand01_02 R_front_hand01_01
R_front_hand02_02 R_front_hand02_01
R_front_hand03_02 R_front_hand03_01
null_rope01_connect L_mid_tent01
Rope1_Seg01 null_rope01_connect
Rope1_Seg02 Rope1_Seg01
Rope1_Seg03 Rope1_Seg02
Rope1_Seg04 Rope1_Seg03
Rope1_Seg05 Rope1_Seg04
Rope1_Seg06 Rope1_Seg05
Rope1_Seg07 Rope1_Seg06
Rope1_Seg09 Rope1_Seg07
L_mid_hand01 Rope1_Seg09
L_mid_hand02 Rope1_Seg09
L_mid_hand03 Rope1_Seg09
null_rope02_connect R_mid_tent01
Rope2_Seg01 null_rope02_connect
Rope2_Seg02 Rope2_Seg01
Rope2_Seg03 Rope2_Seg02
Rope2_Seg04 Rope2_Seg03
Rope2_Seg05 Rope2_Seg04
Rope2_Seg06 Rope2_Seg05
Rope2_Seg07 Rope2_Seg06
Rope2_Seg09 Rope2_Seg07
R_mid_hand01 Rope2_Seg09
R_mid_hand02 Rope2_Seg09
R_mid_hand03 Rope2_Seg09
spine02 spine01
spine03 spine02
pelvis spine03
null_rope03_connect pelvis
null_rope04_connect pelvis
Rope3_Seg01 null_rope03_connect
Rope3_Seg02 Rope3_Seg01
Rope3_Seg03 Rope3_Seg02
Rope3_Seg04 Rope3_Seg03
Rope3_Seg05 Rope3_Seg04
Rope3_Seg06 Rope3_Seg05
Rope3_Seg07 Rope3_Seg06
Rope3_Seg08 Rope3_Seg07
Rope3_Seg09 Rope3_Seg08
R_rear_hand01 Rope3_Seg09
R_rear_hand02 Rope3_Seg09
R_rear_hand03 Rope3_Seg09
Rope4_Seg01 null_rope04_connect
Rope4_Seg02 Rope4_Seg01
Rope4_Seg03 Rope4_Seg02
Rope4_Seg04 Rope4_Seg03
Rope4_Seg05 Rope4_Seg04
Rope4_Seg06 Rope4_Seg05
Rope4_Seg07 Rope4_Seg06
Rope4_Seg08 Rope4_Seg07
Rope4_Seg09 Rope4_Seg08
L_rear_hand01 Rope4_Seg09
L_rear_hand02 Rope4_Seg09
L_rear_hand03 Rope4_Seg09
[BasePosition]
#SegmentName Tx, Ty, Tz, Rx, Ry, Rz, BoneLength
MASTER 0.000000 0.000000 0.000000 -90.000000 0.000000 0.000000 10.000000 
root 0.000000 0.000000 0.000000 0.000000 0.000000 0.000000 10.000000 
chest 0.000000 0.000000 0.000000 0.000000 0.000000 0.000000 10.000000 
L_mid_tent01 0.000000 0.000000 0.000000 0.000000 0.000000 0.000000 10.000000 
R_mid_tent01 0.000000 0.000000 0.000000 0.000000 0.000000 0.000000 10.000000 
spine01 0.000000 0.000000 0.000000 0.000000 0.000000 0.000000 10.000000 
Bip01_Neck 0.000000 0.000000 0.000000 0.000000 0.000000 0.000000 10.000000 
L_humerus 0.000000 0.000000 0.000000 0.000000 0.000000 0.000000 10.000000 
R_humerus 0.000000 0.000000 0.000000 0.000000 0.000000 0.000000 10.000000 
weapon_bone 0.000000 0.000000 0.000000 0.000000 0.000000 0.000000 10.000000 
Bip01_Head 0.000000 0.000000 0.000000 0.000000 0.000000 0.000000 10.000000 
eye_left_bone 0.000000 0.000000 0.000000 0.000000 0.000000 0.000000 10.000000 
eye_right_bone 0.000000 0.000000 0.000000 0.000000 0.000000 0.000000 10.000000 
L_forearm 0.000000 0.000000 0.000000 0.000000 0.000000 0.000000 10.000000 
L_front_hand 0.000000 0.000000 0.000000 0.000000 0.000000 0.000000 10.000000 
L_weapon_bone 0.000000 0.000000 0.000000 0.000000 0.000000 0.000000 10.000000 
L_front_hand01_01 0.000000 0.000000 0.000000 0.000000 0.000000 0.000000 10.000000 
L_front_hand02_01 0.000000 0.000000 0.000000 0.000000 0.000000 0.000000 10.000000 
L_front_hand03_01 0.000000 0.000000 0.000000 0.000000 0.000000 0.000000 10.000000 
L_front_hand01_02 0.000000 0.000000 0.000000 0.000000 0.000000 0.000000 10.000000 
L_front_hand02_02 0.000000 0.000000 0.000000 0.000000 0.000000 0.000000 10.000000 
L_front_hand03_02 0.000000 0.000000 0.000000 0.000000 0.000000 0.000000 10.000000 
R_forearm 0.000000 0.000000 0.000000 0.000000 0.000000 0.000000 10.000000 
R_front_hand 0.000000 0.000000 0.000000 0.000000 0.000000 0.000000 10.000000 
R_weapon_bone 0.000000 0.000000 0.000000 0.000000 0.000000 0.000000 10.000000 
R_front_hand01_01 0.000000 0.000000 0.000000 0.000000 0.000000 0.000000 10.000000 
R_front_hand02_01 0.000000 0.000000 0.000000 0.000000 0.000000 0.000000 10.000000 
R_front_hand03_01 0.000000 0.000000 0.000000 0.000000 0.000000 0.000000 10.000000 
R_front_hand01_02 0.000000 0.000000 0.000000 0.000000 0.000000 0.000000 10.000000 
R_front_hand02_02 0.000000 0.000000 0.000000 0.000000 0.000000 0.000000 10.000000 
R_front_hand03_02 0.000000 0.000000 0.000000 0.000000 0.000000 0.000000 10.000000 
null_rope01_connect 0.000000 0.000000 0.000000 0.000000 0.000000 0.000000 10.000000 
Rope1_Seg01 0.000000 0.000000 0.000000 0.000000 0.000000 0.000000 10.000000 
Rope1_Seg02 0.000000 0.000000 0.000000 0.000000 0.000000 0.000000 10.000000 
Rope1_Seg03 0.000000 0.000000 0.000000 0.000000 0.000000 0.000000 10.000000 
Rope1_Seg04 0.000000 0.000000 0.000000 0.000000 0.000000 0.000000 10.000000 
Rope1_Seg05 0.000000 0.000000 0.000000 0.000000 0.000000 0.000000 10.000000 
Rope1_Seg06 0.000000 0.000000 0.000000 0.000000 0.000000 0.000000 10.000000 
Rope1_Seg07 0.000000 0.000000 0.000000 0.000000 0.000000 0.000000 10.000000 
Rope1_Seg09 0.000000 0.000000 0.000000 0.000000 0.000000 0.000000 10.000000 
L_mid_hand01 0.000000 0.000000 0.000000 0.000000 0.000000 0.000000 10.000000 
L_mid_hand02 0.000000 0.000000 0.000000 0.000000 0.000000 0.000000 10.000000 
L_mid_hand03 0.000000 0.000000 0.000000 0.000000 0.000000 0.000000 10.000000 
null_rope02_connect 0.000000 0.000000 0.000000 0.000000 0.000000 0.000000 10.000000 
Rope2_Seg01 0.000000 0.000000 0.000000 0.000000 0.000000 0.000000 10.000000 
Rope2_Seg02 0.000000 0.000000 0.000000 0.000000 0.000000 0.000000 10.000000 
Rope2_Seg03 0.000000 0.000000 0.000000 0.000000 0.000000 0.000000 10.000000 
Rope2_Seg04 0.000000 0.000000 0.000000 0.000000 0.000000 0.000000 10.000000 
Rope2_Seg05 0.000000 0.000000 0.000000 0.000000 0.000000 0.000000 10.000000 
Rope2_Seg06 0.000000 0.000000 0.000000 0.000000 0.000000 0.000000 10.000000 
Rope2_Seg07 0.000000 0.000000 0.000000 0.000000 0.000000 0.000000 10.000000 
Rope2_Seg09 0.000000 0.000000 0.000000 0.000000 0.000000 0.000000 10.000000 
R_mid_hand01 0.000000 0.000000 0.000000 0.000000 0.000000 0.000000 10.000000 
R_mid_hand02 0.000000 0.000000 0.000000 0.000000 0.000000 0.000000 10.000000 
R_mid_hand03 0.000000 0.000000 0.000000 0.000000 0.000000 0.000000 10.000000 
spine02 0.000000 0.000000 0.000000 0.000000 0.000000 0.000000 10.000000 
spine03 0.000000 0.000000 0.000000 0.000000 0.000000 0.000000 10.000000 
pelvis 0.000000 0.000000 0.000000 0.000000 0.000000 0.000000 10.000000 
null_rope03_connect 0.000000 0.000000 0.000000 0.000000 0.000000 0.000000 10.000000 
null_rope04_connect 0.000000 0.000000 0.000000 0.000000 0.000000 0.000000 10.000000 
Rope3_Seg01 0.000000 0.000000 0.000000 0.000000 0.000000 0.000000 10.000000 
Rope3_Seg02 0.000000 0.000000 0.000000 0.000000 0.000000 0.000000 10.000000 
Rope3_Seg03 0.000000 0.000000 0.000000 0.000000 0.000000 0.000000 10.000000 
Rope3_Seg04 0.000000 0.000000 0.000000 0.000000 0.000000 0.000000 10.000000 
Rope3_Seg05 0.000000 0.000000 0.000000 0.000000 0.000000 0.000000 10.000000 
Rope3_Seg06 0.000000 0.000000 0.000000 0.000000 0.000000 0.000000 10.000000 
Rope3_Seg07 0.000000 0.000000 0.000000 0.000000 0.000000 0.000000 10.000000 
Rope3_Seg08 0.000000 0.000000 0.000000 0.000000 0.000000 0.000000 10.000000 
Rope3_Seg09 0.000000 0.000000 0.000000 0.000000 0.000000 0.000000 10.000000 
R_rear_hand01 0.000000 0.000000 0.000000 0.000000 0.000000 0.000000 10.000000 
R_rear_hand02 0.000000 0.000000 0.000000 0.000000 0.000000 0.000000 10.000000 
R_rear_hand03 0.000000 0.000000 0.000000 0.000000 0.000000 0.000000 10.000000 
Rope4_Seg01 0.000000 0.000000 0.000000 0.000000 0.000000 0.000000 10.000000 
Rope4_Seg02 0.000000 0.000000 0.000000 0.000000 0.000000 0.000000 10.000000 
Rope4_Seg03 0.000000 0.000000 0.000000 0.000000 0.000000 0.000000 10.000000 
Rope4_Seg04 0.000000 0.000000 0.000000 0.000000 0.000000 0.000000 10.000000 
Rope4_Seg05 0.000000 0.000000 0.000000 0.000000 0.000000 0.000000 10.000000 
Rope4_Seg06 0.000000 0.000000 0.000000 0.000000 0.000000 0.000000 10.000000 
Rope4_Seg07 0.000000 0.000000 0.000000 0.000000 0.000000 0.000000 10.000000 
Rope4_Seg08 0.000000 0.000000 0.000000 0.000000 0.000000 0.000000 10.000000 
Rope4_Seg09 0.000000 0.000000 0.000000 0.000000 0.000000 0.000000 10.000000 
L_rear_hand01 0.000000 0.000000 0.000000 0.000000 0.000000 0.000000 10.000000 
L_rear_hand02 0.000000 0.000000 0.000000 0.000000 0.000000 0.000000 10.000000 
L_rear_hand03 0.000000 0.000000 0.000000 0.000000 0.000000 0.000000 10.000000 
#Beginning of Data. Separated by tabs
#Fr	Tx	Ty	Tz	Rx	Ry	Rz	SF
[MASTER]
20 0.000000 0.000000 0.000000 0.001660 0.001660 0.001660 0.000000
21 0.000000 0.000000 0.000000 0.001660 0.001660 0.001660 0.000000
[root]
20 -3.267518 -62.822109 537.464905 -85.422325 -4.109434 -90.740639 541.133850
21 -3.008373 -62.822109 542.311951 -85.452713 -4.235891 -90.718964 545.946838
[chest]
20 -79.643997 14.944325 -35.957211 2.470846 -1.716807 155.716690 88.653366
21 -80.101936 10.332242 -32.575184 2.638069 -0.994104 155.787521 87.087418
[L_mid_tent01]
20 27.253452 22.203901 -249.622177 -1.809361 19.875826 95.256165 252.085281
21 27.268082 22.195507 -249.716141 -2.060747 17.271217 96.801315 252.179184
[R_mid_tent01]
20 23.228794 24.509907 226.238495 148.447235 -23.844149 101.462021 228.744751
21 23.228794 24.509907 226.238495 149.367203 -25.994251 98.323387 228.744751
[spine01]
20 -0.361383 -0.195265 0.000000 -0.000001 -0.000007 22.052340 0.410763
21 -0.361383 -0.195265 0.000000 -0.000001 -0.000007 22.052340 0.410763
[Bip01_Neck]
20 165.484543 71.581718 0.000119 175.896118 1.177290 24.871183 180.302734
21 165.484543 71.581718 0.000119 175.896118 1.177290 24.871183 180.302734
[L_humerus]
20 -13.983130 -135.272980 -120.471481 -32.912933 53.883850 17.144171 181.680161
21 -13.983130 -135.272980 -120.471481 -10.736415 71.224274 61.727840 181.680161
[R_humerus]
20 -13.983309 -135.273102 125.287651 41.804077 -47.062881 23.920734 184.909012
21 -13.983309 -135.273102 125.287651 28.183069 -66.616493 60.663174 184.909012
[weapon_bone]
20 235.964890 -300.705902 0.000000 0.000000 -89.951546 -128.212341 382.234833
21 235.964890 -300.705902 0.000000 0.000000 -89.951546 -128.212341 382.234833
[Bip01_Head]
20 175.473755 150.677780 3.232646 7.491034 2.272907 -29.850195 231.312088
21 175.685898 151.262039 3.192031 7.546861 2.738331 -29.909327 231.853256
[eye_left_bone]
20 -24.626970 125.451866 -64.772606 0.000000 -90.000000 -99.840431 143.318359
21 -24.626970 125.451866 -64.772606 0.000000 -90.000000 -99.840431 143.318359
[eye_right_bone]
20 -24.626970 125.451866 64.327362 0.000000 -89.960434 80.159386 143.117676
21 -24.626970 125.451866 64.327362 0.000000 -89.960434 80.159386 143.117676
[L_forearm]
20 322.776093 0.000000 -0.000119 0.000558 -0.002280 -117.490196 322.776093
21 322.776093 0.000000 -0.000119 0.000414 -0.002310 -110.308220 322.776093
[L_front_hand]
20 241.149185 -0.042021 -3.300071 170.778900 -0.277359 4.028984 241.171753
21 241.149185 -0.042021 -3.300071 164.231750 1.071708 3.673688 241.171753
[L_weapon_bone]
20 156.183838 0.000000 0.000000 0.000014 0.000007 0.000001 156.183838
21 156.183838 0.000000 0.000000 0.000014 0.000007 0.000001 156.183838
[L_front_hand01_01]
20 86.095154 20.947098 -0.655860 -0.100150 -0.591328 47.224220 88.609184
21 86.095154 20.947098 -0.655860 -0.291160 -0.522967 67.061432 88.609184
[L_front_hand02_01]
20 86.935165 -11.437475 24.513514 127.052216 -41.325214 -26.843428 91.046425
21 86.935165 -11.437475 24.513514 143.101288 -55.544468 -48.031300 91.046425
[L_front_hand03_01]
20 86.637497 -14.123976 -20.424902 -128.080704 39.719696 -29.266527 90.126129
21 86.637497 -14.123976 -20.424902 -143.374695 53.765942 -50.005058 90.126129
[L_front_hand01_02]
20 71.020905 -0.000179 0.000030 0.001347 0.001922 -19.950998 71.020905
21 71.020905 -0.000179 0.000030 0.001212 0.002010 -27.808073 71.020905
[L_front_hand02_02]
20 71.020927 -0.000119 0.000060 0.001347 0.001922 -19.950998 71.020927
21 71.020927 -0.000119 0.000060 0.001212 0.002010 -27.808073 71.020927
[L_front_hand03_02]
20 71.020905 -0.000060 0.000060 0.001347 0.001922 -19.950998 71.020905
21 71.020905 -0.000060 0.000060 0.001212 0.002010 -27.808073 71.020905
[R_forearm]
20 322.776428 -0.000060 0.000030 0.204724 0.052647 -104.914528 322.776428
21 322.776428 -0.000060 0.000030 0.212724 0.017972 -95.286263 322.776428
[R_front_hand]
20 238.847015 -0.006795 2.210259 9.668392 -1.369474 1.245920 238.857239
21 238.847015 -0.006795 2.210259 16.632843 -3.415133 0.427401 238.857239
[R_weapon_bone]
20 155.664093 0.002503 -0.000030 0.003487 0.001180 -90.988930 155.664078
21 155.664093 0.002503 -0.000030 0.003487 0.001180 -90.988930 155.664078
[R_front_hand01_01]
20 87.624611 14.231146 22.918642 -127.131607 -41.440224 27.074512 91.683487
21 87.624611 14.231146 22.918642 -143.276428 -55.629864 48.351048 91.683487
[R_front_hand02_01]
20 89.356956 14.367283 -19.491137 128.331299 40.073803 29.885630 92.579636
21 89.356956 14.367283 -19.491137 143.899796 54.027256 50.886719 92.579636
[R_front_hand03_01]
20 87.286232 -22.307278 -0.143439 -0.058652 -0.451096 -47.608463 90.091743
21 87.286232 -22.307278 -0.143439 0.100857 -0.442067 -67.448074 90.091743
[R_front_hand01_02]
20 71.020905 0.000060 0.000119 0.001922 0.001347 19.949347 71.020905
21 71.020905 0.000060 0.000119 0.002010 0.001212 27.806408 71.020905
[R_front_hand02_02]
20 71.020844 -0.000030 -0.000119 0.001922 0.001347 19.949347 71.020836
21 71.020844 -0.000030 -0.000119 0.002010 0.001212 27.806408 71.020836
[R_front_hand03_02]
20 71.020905 0.000000 0.000030 0.001922 0.001347 19.949347 71.020905
21 71.020905 0.000000 0.000030 0.002010 0.001212 27.806408 71.020905
[null_rope01_connect]
20 328.732483 0.000000 -0.000238 173.203278 -74.629677 -174.613678 328.732483
21 328.732483 0.000000 -0.000238 168.973801 -77.138817 -171.763702 328.732483
[Rope1_Seg01]
20 -0.000026 0.000014 0.000056 126.540756 -29.113457 124.290565 0.000063
21 -0.000025 0.000013 0.000051 124.832771 -27.328232 126.029778 0.000058
[Rope1_Seg02]
20 139.999863 -0.000179 0.000000 -1.552863 -2.034580 -1.326249 139.999863
21 139.999863 -0.000179 0.000000 -1.300100 -1.846864 -1.179438 139.999863
[Rope1_Seg03]
20 139.999924 0.000060 -0.000060 -2.297079 -2.923673 -2.028005 139.999924
21 139.999924 0.000060 -0.000060 -1.921089 -2.660369 -1.789405 139.999924
[Rope1_Seg04]
20 139.999924 -0.000060 -0.000119 -3.791947 -4.676022 -3.528767 139.999924
21 139.999924 -0.000060 -0.000119 -3.189996 -4.282793 -3.102590 139.999924
[Rope1_Seg05]
20 139.999832 0.000119 -0.000060 -8.074055 -11.053760 -5.559858 139.999832
21 139.999832 0.000119 -0.000060 -6.780308 -10.250334 -4.210887 139.999832
[Rope1_Seg06]
20 139.999954 0.000119 -0.000060 -12.212423 -14.555948 -28.586813 139.999954
21 139.999954 0.000119 -0.000060 -11.931186 -16.072868 -30.259462 139.999954
[Rope1_Seg07]
20 139.999985 0.000060 0.000000 -1.465365 2.524116 -51.586296 139.999985
21 139.999985 0.000060 0.000000 0.090135 0.784600 -52.350956 139.999985
[Rope1_Seg09]
20 121.602913 0.000119 -0.000089 -89.793175 -1.359789 0.847147 121.602913
21 121.602913 0.000119 -0.000089 -89.793175 -1.359789 0.847147 121.602913
[L_mid_hand01]
20 103.859421 1.038730 8.195221 106.235023 -27.533335 -8.199569 104.187431
21 103.859421 1.038730 8.195221 106.243362 -27.610722 -8.221345 104.187431
[L_mid_hand02]
20 105.572853 -4.139662 -10.864139 -140.944733 23.352873 -25.445156 106.211075
21 105.572853 -4.139662 -10.864139 -140.972229 23.403242 -25.511127 106.211075
[L_mid_hand03]
20 104.641464 17.579376 -3.913581 -16.723997 8.640660 30.468353 106.179977
21 104.641464 17.579376 -3.913581 -16.709753 8.664801 30.543972 106.179977
[null_rope02_connect]
20 328.732849 0.000179 -0.000119 -134.976715 48.401386 44.191551 328.732849
21 328.732849 0.000179 -0.000119 -134.730728 47.868530 40.751007 328.732849
[Rope2_Seg01]
20 -0.000013 -0.000049 0.000000 -64.464836 -39.998909 69.377159 0.000050
21 -0.000019 -0.000057 0.000000 -62.401711 -36.614597 68.976105 0.000060
[Rope2_Seg02]
20 139.999741 -0.000060 -0.000119 4.972839 5.034322 7.524247 139.999756
21 139.999741 -0.000060 -0.000119 4.165374 4.419621 6.390991 139.999756
[Rope2_Seg03]
20 140.000107 0.000030 0.000000 6.597945 8.203207 10.410977 140.000107
21 140.000107 0.000030 0.000000 5.727489 7.239585 9.130322 140.000107
[Rope2_Seg04]
20 139.999802 0.000000 -0.000060 6.932607 13.370065 12.242948 139.999802
21 139.999802 0.000000 -0.000060 6.789543 12.836074 11.846413 139.999802
[Rope2_Seg05]
20 139.999985 -0.000060 0.000119 3.615650 11.485996 9.864953 139.999985
21 139.999985 -0.000060 0.000119 4.234602 12.707419 11.040177 139.999985
[Rope2_Seg06]
20 139.999893 -0.000030 -0.000119 6.219801 19.824095 25.760183 139.999893
21 139.999893 -0.000030 -0.000119 7.059368 20.104624 28.564713 139.999893
[Rope2_Seg07]
20 139.999893 0.000060 -0.000060 4.386863 29.779158 40.764042 139.999893
21 139.999893 0.000060 -0.000060 4.207770 26.965801 38.280685 139.999893
[Rope2_Seg09]
20 121.338966 0.000089 -0.000060 33.793236 -1.359788 -0.847141 121.338966
21 121.338966 0.000089 -0.000060 33.793236 -1.359788 -0.847141 121.338966
[R_mid_hand01]
20 104.680779 11.144459 -10.335981 -42.750736 22.953909 25.606682 105.778534
21 104.680779 11.144459 -10.335981 -42.750736 22.953909 25.606682 105.778534
[R_mid_hand02]
20 104.070427 2.443552 8.231699 73.485062 -29.224546 8.771015 104.424065
21 104.070427 2.443552 8.231699 73.485046 -29.224543 8.771014 104.424065
[R_mid_hand03]
20 106.028137 -11.221827 -5.996406 -167.274673 9.466213 -33.359016 106.788818
21 106.028137 -11.221827 -5.996406 -167.274673 9.466213 -33.359016 106.788818
[spine02]
20 129.756927 0.001550 0.000119 -0.236821 -4.116699 -4.524190 129.756927
21 129.756927 0.001550 0.000119 -0.240971 -4.096725 -4.429959 129.756927
[spine03]
20 78.624802 0.085323 -4.791708 0.351217 4.698247 -5.366414 78.770721
21 78.622604 0.085702 -4.813127 0.359708 4.549177 -5.202741 78.769836
[pelvis]
20 169.435242 0.051022 0.000000 0.010268 0.481566 -1.482060 169.435257
21 169.435242 0.051022 0.000000 0.007384 0.323251 -1.477130 169.435257
[null_rope03_connect]
20 -1.257226 -2.466202 137.391083 -17.219053 -84.825020 100.638039 137.418976
21 -1.257226 -2.466202 137.391083 -13.933370 -84.928040 97.231110 137.418976
[null_rope04_connect]
20 -1.259640 -2.480268 -137.844437 -17.219053 -84.825020 100.638039 137.872513
21 -1.259640 -2.480268 -137.844437 -13.933370 -84.928040 97.231110 137.872513
[Rope3_Seg01]
20 0.000000 0.000000 0.000000 -146.146347 -42.782314 -60.425461 0.000000
21 0.000000 0.000000 0.000000 -147.636856 -43.678230 -58.828018 0.000000
[Rope3_Seg02]
20 139.999924 -0.000119 0.000060 5.281394 -11.678897 7.280663 139.999924
21 139.999924 -0.000119 0.000060 5.539952 -11.499850 7.601726 139.999924
[Rope3_Seg03]
20 139.999924 -0.000119 0.000119 6.496104 -16.536512 13.107292 139.999924
21 139.999924 -0.000119 0.000119 6.633314 -16.284161 13.814953 139.999924
[Rope3_Seg04]
20 139.999924 0.000119 0.000000 4.702764 -15.796263 15.286288 139.999924
21 139.999924 0.000119 0.000000 4.396945 -15.262212 16.473099 139.999924
[Rope3_Seg05]
20 139.999924 -0.000238 0.000060 2.216814 -9.089705 13.104236 139.999924
21 139.999924 -0.000238 0.000060 1.852620 -8.849895 13.194097 139.999924
[Rope3_Seg06]
20 139.999893 -0.000119 -0.000060 -0.460414 -9.715280 21.176132 139.999893
21 139.999893 -0.000119 -0.000060 -0.721844 -9.953555 20.028351 139.999893
[Rope3_Seg07]
20 139.999771 0.000060 -0.000119 -5.066033 -9.696645 22.467350 139.999771
21 139.999771 0.000060 -0.000119 -5.212779 -10.412604 22.131266 139.999771
[Rope3_Seg08]
20 139.999985 -0.000060 0.000000 -3.786193 -5.837842 10.927728 139.999985
21 139.999985 -0.000060 0.000000 -3.792732 -6.226251 10.903082 139.999985
[Rope3_Seg09]
20 90.185997 -0.000179 -0.000060 89.793228 -1.359877 -0.847183 90.185997
21 90.185997 -0.000179 -0.000060 89.793228 -1.359877 -0.847183 90.185997
[R_rear_hand01]
20 103.366196 -6.073594 -10.757982 -161.551193 16.666374 -30.088671 104.101845
21 103.366196 -6.073594 -10.757982 -161.551193 16.666374 -30.088671 104.101845
[R_rear_hand02]
20 100.509819 12.039542 -7.992327 -34.280552 19.289745 28.875523 101.543350
21 100.509819 12.039542 -7.992327 -34.280552 19.289745 28.875523 101.543350
[R_rear_hand03]
20 101.539970 5.215704 5.435467 83.366440 -30.933914 7.284830 101.819031
21 101.539970 5.215704 5.435467 83.366440 -30.933914 7.284830 101.819031
[Rope4_Seg01]
20 -0.000011 -0.000066 -0.000072 88.652206 -46.245190 -149.462830 0.000099
21 -0.000013 -0.000064 -0.000076 88.661545 -46.464413 -149.281067 0.000100
[Rope4_Seg02]
20 139.999985 0.000060 0.000119 -9.631710 5.403141 -8.629348 139.999985
21 139.999985 0.000060 0.000119 -9.028241 4.895547 -8.206957 139.999985
[Rope4_Seg03]
20 139.999924 0.000000 -0.000238 -16.115368 12.831101 -14.943211 139.999924
21 139.999924 0.000000 -0.000238 -15.792458 11.834623 -14.648108 139.999924
[Rope4_Seg04]
20 139.999985 0.000000 0.000119 -17.129740 29.139223 -19.275400 139.999985
21 139.999985 0.000000 0.000119 -19.043394 28.976843 -21.259865 139.999985
[Rope4_Seg05]
20 139.999802 -0.000060 -0.000119 -2.722116 21.715927 -7.925341 139.999802
21 139.999802 -0.000060 -0.000119 -3.424698 23.897753 -9.009401 139.999802
[Rope4_Seg06]
20 139.999924 0.000000 0.000060 0.720331 10.432188 -8.696777 139.999924
21 139.999924 0.000000 0.000060 0.804693 10.293741 -7.927328 139.999924
[Rope4_Seg07]
20 139.999802 0.000000 0.000000 2.123371 12.762088 -19.352434 139.999802
21 139.999802 0.000000 0.000000 2.255519 11.219905 -17.039679 139.999802
[Rope4_Seg08]
20 139.999924 0.000000 0.000119 1.311085 11.540737 -15.544133 139.999924
21 139.999924 0.000000 0.000119 1.341038 11.250881 -15.019004 139.999924
[Rope4_Seg09]
20 90.185791 0.000060 0.000060 -135.617828 2.228885 0.850567 90.185791
21 90.185791 0.000060 0.000060 -135.617828 2.228885 0.850567 90.185791
[L_rear_hand01]
20 101.696655 -8.392275 -7.654577 -35.092934 -17.603874 153.690598 102.329041
21 101.696655 -8.392275 -7.654577 -35.093193 -17.603733 153.690567 102.329041
[L_rear_hand02]
20 102.726799 -1.568258 5.773216 83.558968 27.991772 173.102463 102.900848
21 102.726799 -1.568258 5.773216 83.558899 27.991606 173.102295 102.900848
[L_rear_hand03]
20 104.552910 9.721220 -10.420293 -160.739090 -15.709855 -152.830521 105.519653
21 104.552910 9.721220 -10.420293 -160.739059 -15.709818 -152.830750 105.519653
